<svg width="44" height="44" viewBox="0 0 44 44" fill="none" xmlns="http://www.w3.org/2000/svg">
<g clip-path="url(#clip0_1_4030)">
<circle cx="21.9997" cy="21.9997" r="18.8571" fill="white"/>
<path d="M22 44C34.1 44 44 34.1 44 22C44 9.9 34.1 0 22 0C9.9 0 0 9.9 0 22C0 34.1 9.9 44 22 44ZM22 39.6C15.18 39.6 9.02 35.64 6.16 29.7L16.72 25.96C18.04 27.72 20.02 28.6 22 28.6C23.98 28.6 25.96 27.72 27.06 26.18L37.84 29.7C34.98 35.64 28.82 39.6 22 39.6ZM24.2 4.62C32.78 5.72 39.6 13.2 39.6 22C39.6 23.32 39.38 24.42 39.16 25.74L28.6 22C28.6 19.14 26.84 16.72 24.2 15.84V4.62ZM22 19.8C23.32 19.8 24.2 20.68 24.2 22C24.2 23.32 23.32 24.2 22 24.2C20.68 24.2 19.8 23.32 19.8 22C19.8 20.68 20.68 19.8 22 19.8ZM19.8 4.62V15.84C17.16 16.72 15.4 19.14 15.4 22L4.84 25.74C4.62 24.42 4.4 23.32 4.4 22C4.4 12.98 11.22 5.72 19.8 4.62Z" fill="#2D3A3D"/>
</g>
<defs>
<clipPath id="clip0_1_4030">
<rect width="44" height="44" fill="white"/>
</clipPath>
</defs>
</svg>
