<svg width="44" height="44" viewBox="0 0 44 44" fill="none" xmlns="http://www.w3.org/2000/svg">
<path d="M7.85736 6.10938H11.3494C11.8125 6.10938 12.2566 6.29333 12.5841 6.62078C12.9115 6.94822 13.0955 7.39233 13.0955 7.85541V11.3475C13.0955 11.8105 12.9115 12.2547 12.5841 12.5821C12.2566 12.9095 11.8125 13.0935 11.3494 13.0935H7.85736C7.39428 13.0935 6.95017 12.9095 6.62273 12.5821C6.29528 12.2547 6.11133 11.8105 6.11133 11.3475V7.85541C6.11133 7.39233 6.29528 6.94822 6.62273 6.62078C6.95017 6.29333 7.39428 6.10938 7.85736 6.10938ZM32.3018 6.10938H35.7939C36.2569 6.10938 36.7011 6.29333 37.0285 6.62078C37.3559 6.94822 37.5399 7.39233 37.5399 7.85541V11.3475C37.5399 11.8105 37.3559 12.2547 37.0285 12.5821C36.7011 12.9095 36.2569 13.0935 35.7939 13.0935H32.3018C31.8387 13.0935 31.3946 12.9095 31.0672 12.5821C30.7397 12.2547 30.5558 11.8105 30.5558 11.3475V7.85541C30.5558 7.39233 30.7397 6.94822 31.0672 6.62078C31.3946 6.29333 31.8387 6.10938 32.3018 6.10938ZM20.0796 6.10938H23.5716C24.0347 6.10938 24.4788 6.29333 24.8063 6.62078C25.1337 6.94822 25.3177 7.39233 25.3177 7.85541V11.3475C25.3177 11.8105 25.1337 12.2547 24.8063 12.5821C24.4788 12.9095 24.0347 13.0935 23.5716 13.0935H20.0796C19.6165 13.0935 19.1724 12.9095 18.845 12.5821C18.5175 12.2547 18.3335 11.8105 18.3335 11.3475V7.85541C18.3335 7.39233 18.5175 6.94822 18.845 6.62078C19.1724 6.29333 19.6165 6.10938 20.0796 6.10938ZM7.85736 18.3316H11.3494C11.8125 18.3316 12.2566 18.5156 12.5841 18.843C12.9115 19.1704 13.0955 19.6146 13.0955 20.0776V23.5697C13.0955 24.0328 12.9115 24.4769 12.5841 24.8043C12.2566 25.1318 11.8125 25.3157 11.3494 25.3157H7.85736C7.39428 25.3157 6.95017 25.1318 6.62273 24.8043C6.29528 24.4769 6.11133 24.0328 6.11133 23.5697V20.0776C6.11133 19.6146 6.29528 19.1704 6.62273 18.843C6.95017 18.5156 7.39428 18.3316 7.85736 18.3316ZM32.3018 18.3316H35.7939C36.2569 18.3316 36.7011 18.5156 37.0285 18.843C37.3559 19.1704 37.5399 19.6146 37.5399 20.0776V23.5697C37.5399 24.0328 37.3559 24.4769 37.0285 24.8043C36.7011 25.1318 36.2569 25.3157 35.7939 25.3157H32.3018C31.8387 25.3157 31.3946 25.1318 31.0672 24.8043C30.7397 24.4769 30.5558 24.0328 30.5558 23.5697V20.0776C30.5558 19.6146 30.7397 19.1704 31.0672 18.843C31.3946 18.5156 31.8387 18.3316 32.3018 18.3316ZM20.0796 18.3316H23.5716C24.0347 18.3316 24.4788 18.5156 24.8063 18.843C25.1337 19.1704 25.3177 19.6146 25.3177 20.0776V23.5697C25.3177 24.0328 25.1337 24.4769 24.8063 24.8043C24.4788 25.1318 24.0347 25.3157 23.5716 25.3157H20.0796C19.6165 25.3157 19.1724 25.1318 18.845 24.8043C18.5175 24.4769 18.3335 24.0328 18.3335 23.5697V20.0776C18.3335 19.6146 18.5175 19.1704 18.845 18.843C19.1724 18.5156 19.6165 18.3316 20.0796 18.3316ZM20.0796 30.5538H23.5716C24.0347 30.5538 24.4788 30.7378 24.8063 31.0652C25.1337 31.3927 25.3177 31.8368 25.3177 32.2998V35.7919C25.3177 36.255 25.1337 36.6991 24.8063 37.0265C24.4788 37.354 24.0347 37.5379 23.5716 37.5379H20.0796C19.6165 37.5379 19.1724 37.354 18.845 37.0265C18.5175 36.6991 18.3335 36.255 18.3335 35.7919V32.2998C18.3335 31.8368 18.5175 31.3927 18.845 31.0652C19.1724 30.7378 19.6165 30.5538 20.0796 30.5538Z" stroke="#F59100" stroke-width="2" stroke-linecap="round" stroke-linejoin="round"/>
</svg>
