<svg width="37" height="36" viewBox="0 0 37 36" fill="none" xmlns="http://www.w3.org/2000/svg">
<path d="M27.1614 20.2456C25.8101 21.5985 23.6993 23.7115 21.9319 25.4913C19.831 24.1161 17.932 22.5986 16.4049 21.0715C14.5191 19.1857 12.1609 16.5006 10.8865 14.5986C12.5045 12.9921 14.6205 10.8789 16.1731 9.32766L6.84548 0L2.1914 4.57031L2.18453 4.57717C0.882107 5.8796 0.330594 7.65746 0.545376 9.86132C1.2323 16.9085 9.84996 27.1162 17.4679 32.2286C21.8783 35.1886 28.2177 37.9286 31.9673 34.1787C34.6897 31.4566 35.7304 30.3475 35.7735 30.3016L36.4717 29.5562L27.1614 20.2456ZM30.4748 32.6862C27.6363 35.5245 22.0069 32.7326 18.644 30.4758C11.5748 25.7313 3.26614 16.0145 2.64623 9.65642C2.49572 8.11339 2.84152 6.90765 3.67373 6.07324L6.83202 2.9718L13.1868 9.32683C9.96395 12.5447 8.99303 13.5038 8.22097 14.2682L8.63048 14.9741C9.87413 17.1164 12.7586 20.4104 14.9125 22.5642C17.2751 24.9269 19.7003 26.5949 22.2362 28.1821L22.8303 27.5825C24.1338 26.2672 26.0281 24.3679 27.1622 23.2319L33.5257 29.5955C32.9363 30.2039 31.9517 31.2091 30.4748 32.6862Z" fill="#2D3A3D"/>
</svg>
