<svg width="44" height="44" viewBox="0 0 44 44" fill="none" xmlns="http://www.w3.org/2000/svg">
<path d="M27.6669 16.3331H27.6858M30.6042 6.59199L37.408 13.3958C37.9127 13.9005 38.3131 14.4996 38.5863 15.159C38.8594 15.8184 39 16.5251 39 17.2388C39 17.9525 38.8594 18.6593 38.5863 19.3187C38.3131 19.978 37.9127 20.5772 37.408 21.0818L32.4156 26.0742C31.911 26.5789 31.3119 26.9793 30.6525 27.2524C29.9931 27.5256 29.2864 27.6662 28.5726 27.6662C27.8589 27.6662 27.1522 27.5256 26.4928 27.2524C25.8334 26.9793 25.2343 26.5789 24.7297 26.0742L24.1611 25.5056L11.7736 37.8931C11.146 38.5207 10.3174 38.9072 9.43327 38.9849L9.10271 39H6.88891C6.42625 38.9999 5.97971 38.8301 5.63397 38.5226C5.28823 38.2152 5.06735 37.7916 5.01322 37.3321L5 37.1111V34.8973C5.00022 34.0103 5.31249 33.1518 5.88212 32.4719L6.1069 32.2264L6.88891 31.4444H10.6667V27.6665H14.4445V23.8887L18.4944 19.8389L17.9258 19.2703C17.4211 18.7657 17.0207 18.1666 16.7476 17.5072C16.4744 16.8478 16.3338 16.1411 16.3338 15.4274C16.3338 14.7136 16.4744 14.0069 16.7476 13.3475C17.0207 12.6881 17.4211 12.089 17.9258 11.5844L22.9182 6.59199C23.4228 6.08727 24.022 5.6869 24.6813 5.41375C25.3407 5.14059 26.0475 5 26.7612 5C27.4749 5 28.1816 5.14059 28.841 5.41375C29.5004 5.6869 30.0995 6.08727 30.6042 6.59199Z" stroke="#F59100" stroke-width="2" stroke-linecap="round" stroke-linejoin="round"/>
</svg>
