<svg width="32" height="32" viewBox="0 0 32 32" fill="none" xmlns="http://www.w3.org/2000/svg">
<g clip-path="url(#clip0_1_3331)">
<circle cx="15.9999" cy="15.9994" r="13.7143" fill="white"/>
<path d="M16 32C24.8 32 32 24.8 32 16C32 7.2 24.8 0 16 0C7.2 0 0 7.2 0 16C0 24.8 7.2 32 16 32ZM16 28.8C11.04 28.8 6.56 25.92 4.48 21.6L12.16 18.88C13.12 20.16 14.56 20.8 16 20.8C17.44 20.8 18.88 20.16 19.68 19.04L27.52 21.6C25.44 25.92 20.96 28.8 16 28.8ZM17.6 3.36C23.84 4.16 28.8 9.6 28.8 16C28.8 16.96 28.64 17.76 28.48 18.72L20.8 16C20.8 13.92 19.52 12.16 17.6 11.52L17.6 3.36ZM16 14.4C16.96 14.4 17.6 15.04 17.6 16C17.6 16.96 16.96 17.6 16 17.6C15.04 17.6 14.4 16.96 14.4 16C14.4 15.04 15.04 14.4 16 14.4ZM14.4 3.36V11.52C12.48 12.16 11.2 13.92 11.2 16L3.52 18.72C3.36 17.76 3.2 16.96 3.2 16C3.2 9.44 8.16 4.16 14.4 3.36Z" fill="#F59100"/>
</g>
<defs>
<clipPath id="clip0_1_3331">
<rect width="32" height="32" fill="white"/>
</clipPath>
</defs>
</svg>
